<svg width="20" height="20" viewBox="0 0 20 20" xmlns="http://www.w3.org/2000/svg">
<path d="M10.3052 0.998502C10.7954 0.998502 11.2156 1.34798 11.2956 1.83724L11.4157 2.52621C11.4757 2.89566 11.7459 3.20519 12.1061 3.31503C12.4862 3.43485 12.8664 3.59461 13.2466 3.79431C13.3967 3.87419 13.5468 3.90414 13.7069 3.90414C13.907 3.90414 14.1171 3.84423 14.2871 3.71443L14.8674 3.30504C15.0375 3.18522 15.2376 3.11533 15.4477 3.11533C15.7179 3.11533 15.968 3.21518 16.1581 3.40489L16.5883 3.83425C16.9385 4.18372 16.9785 4.72292 16.6983 5.12232L16.2881 5.70145C16.068 6.01098 16.038 6.41038 16.2181 6.73989C16.4182 7.11932 16.5783 7.49875 16.6983 7.87818C16.8084 8.23764 17.1186 8.50724 17.4887 8.56715L18.1791 8.68697C18.6593 8.76685 19.0195 9.18622 19.0195 9.67549V10.2846C19.0195 10.7738 18.6693 11.1932 18.1791 11.2731L17.4887 11.3929C17.1186 11.4528 16.8084 11.7224 16.6983 12.0819C16.5783 12.4613 16.4182 12.8407 16.2181 13.2202C16.048 13.5497 16.068 13.9591 16.2881 14.2586L16.6983 14.8377C16.9885 15.2371 16.9385 15.7763 16.5883 16.1258L16.1581 16.5552C15.968 16.7449 15.7179 16.8447 15.4477 16.8447C15.2376 16.8447 15.0375 16.7848 14.8674 16.655L14.2871 16.2456C14.1171 16.1258 13.907 16.0559 13.7069 16.0559C13.5468 16.0559 13.3867 16.0959 13.2466 16.1658C12.8664 16.3655 12.4862 16.5252 12.1061 16.645C11.7459 16.7549 11.4757 17.0644 11.4157 17.4338L11.2956 18.1228C11.2156 18.6021 10.7954 18.9616 10.3052 18.9616H9.69485C9.2046 18.9616 8.78439 18.6121 8.70435 18.1228L8.58429 17.4338C8.52426 17.0644 8.25413 16.7549 7.89395 16.645C7.51376 16.5252 7.13357 16.3655 6.75338 16.1658C6.6033 16.0859 6.45323 16.0559 6.29315 16.0559C6.09305 16.0559 5.88294 16.1158 5.71286 16.2456L5.13257 16.655C4.96248 16.7748 4.76238 16.8447 4.55228 16.8447C4.28214 16.8447 4.03202 16.7449 3.84192 16.5552L3.41171 16.1258C3.06153 15.7763 3.02151 15.2371 3.30165 14.8377L3.71186 14.2586C3.93197 13.9491 3.96198 13.5497 3.78189 13.2202C3.58179 12.8407 3.42171 12.4613 3.30165 12.0819C3.1916 11.7224 2.88144 11.4528 2.51126 11.3929L1.82091 11.2731C1.34067 11.1932 0.98049 10.7738 0.98049 10.2846V9.67549C0.98049 9.18622 1.33067 8.76685 1.82091 8.68697L2.51126 8.56715C2.88144 8.50724 3.1916 8.23764 3.30165 7.87818C3.42171 7.49875 3.58179 7.11932 3.78189 6.73989C3.95198 6.41038 3.93197 6.001 3.71186 5.70145L3.30165 5.12232C3.01151 4.72292 3.06153 4.18372 3.41171 3.83425L3.84192 3.40489C4.03202 3.21518 4.28214 3.11533 4.55228 3.11533C4.76238 3.11533 4.96248 3.17524 5.13257 3.30504L5.71286 3.71443C5.88294 3.83425 6.09305 3.90414 6.29315 3.90414C6.45323 3.90414 6.61331 3.8642 6.75338 3.79431C7.13357 3.59461 7.51376 3.43485 7.89395 3.31503C8.25413 3.20519 8.52426 2.89566 8.58429 2.52621L8.70435 1.83724C8.78439 1.35796 9.2046 0.998502 9.69485 0.998502H10.3052ZM10.3052 0H9.69485C8.71436 0 7.88394 0.708937 7.72386 1.6675L7.6038 2.35647C7.14357 2.49626 6.71336 2.68597 6.29315 2.90564L5.71286 2.49626C5.36268 2.24663 4.95248 2.12681 4.55228 2.12681C4.03202 2.12681 3.52176 2.32651 3.14157 2.71593L2.71136 3.14528C2.02101 3.83425 1.93097 4.92262 2.50125 5.72142L2.91146 6.30055C2.69135 6.71992 2.51126 7.14928 2.36118 7.60859L1.67084 7.72841C0.710355 7.88817 0 8.72691 0 9.69546V10.3045C0 11.2831 0.710355 12.1118 1.67084 12.2716L2.36118 12.3914C2.50125 12.8507 2.69135 13.2801 2.91146 13.6995L2.50125 14.2786C1.93097 15.0774 2.02101 16.1658 2.71136 16.8547L3.14157 17.2841C3.53177 17.6735 4.04202 17.8732 4.55228 17.8732C4.95248 17.8732 5.36268 17.7534 5.71286 17.5037L6.29315 17.0944C6.71336 17.314 7.14357 17.4938 7.6038 17.6435L7.72386 18.3325C7.88394 19.2911 8.72436 20 9.69485 20H10.3052C11.2856 20 12.1161 19.2911 12.2761 18.3325L12.3962 17.6435C12.8564 17.5037 13.2866 17.314 13.7069 17.0944L14.2871 17.5037C14.6373 17.7534 15.0475 17.8732 15.4477 17.8732C15.968 17.8732 16.4782 17.6735 16.8584 17.2841L17.2886 16.8547C17.979 16.1658 18.069 15.0774 17.4987 14.2786L17.0885 13.6995C17.3087 13.2801 17.4887 12.8507 17.6388 12.3914L18.3292 12.2716C19.2896 12.1118 20 11.2731 20 10.3045V9.69546C20 8.71692 19.2896 7.88817 18.3292 7.72841L17.6388 7.60859C17.4987 7.14928 17.3087 6.71992 17.0885 6.30055L17.4987 5.72142C18.069 4.92262 17.979 3.83425 17.2886 3.14528L16.8584 2.71593C16.4682 2.32651 15.958 2.12681 15.4477 2.12681C15.0475 2.12681 14.6373 2.24663 14.2871 2.49626L13.7069 2.90564C13.2866 2.68597 12.8564 2.50624 12.3962 2.35647L12.2761 1.6675C12.1161 0.708937 11.2756 0 10.3052 0Z"/>
<path d="M10 7C11.65 7 13 8.35 13 10C13 11.65 11.65 13 10 13C8.35 13 7 11.65 7 10C7 8.35 8.35 7 10 7ZM10 6C7.79 6 6 7.79 6 10C6 12.21 7.79 14 10 14C12.21 14 14 12.21 14 10C14 7.79 12.21 6 10 6Z"/>
</svg>
