<svg width="18" height="20" viewBox="0 0 18 20" fill="none" xmlns="http://www.w3.org/2000/svg">
<path d="M12.0001 16H6.00012M12.0001 16C12.0001 17.6569 10.657 19 9.00012 19C7.34327 19 6.00012 17.6569 6.00012 16M12.0001 16H15.5906C15.9731 16 16.1653 16 16.3202 15.9478C16.6161 15.848 16.8476 15.6156 16.9474 15.3198C16.9998 15.1643 16.9998 14.9715 16.9998 14.5859C16.9998 14.4172 16.9997 14.3329 16.9865 14.2524C16.9615 14.1004 16.9025 13.9563 16.8127 13.8312C16.7652 13.7651 16.7049 13.7048 16.5859 13.5858L16.1964 13.1963C16.0707 13.0706 16.0001 12.9001 16.0001 12.7224V8C16.0001 4.134 12.8661 0.999991 9.00012 1C5.13414 1.00001 2.00012 4.13401 2.00012 8V12.7224C2.00012 12.9002 1.92937 13.0706 1.80369 13.1963L1.41418 13.5858C1.29488 13.7051 1.23516 13.765 1.18762 13.8312C1.09778 13.9564 1.03827 14.1004 1.01332 14.2524C1.00012 14.3329 1.00012 14.4172 1.00012 14.586C1.00012 14.9715 1.00012 15.1642 1.05257 15.3197C1.15237 15.6156 1.38492 15.848 1.68079 15.9478C1.83568 16 2.02714 16 2.40968 16H6.00012" stroke-linecap="round" stroke-linejoin="round"/>
</svg>
