<svg width="152" height="26" viewBox="0 0 152 26" fill="none" xmlns="http://www.w3.org/2000/svg">
<g clip-path="url(#clip0_3328_41748)">
<path d="M17.4708 21.2373H7.9928L6.4685 25.7072H0L9.18488 0.351379H16.3374L25.5222 25.7072H18.9756L17.4513 21.2373H17.4708ZM15.8683 16.4745L12.722 7.18321L9.61481 16.4745H15.8683Z" fill="#0A2348"/>
<path d="M34.4918 0.351379V25.7072H28.3164V0.351379H34.4918Z" fill="#0A2348"/>
<path d="M80.2213 12.551C79.5373 13.7612 78.5016 14.7567 77.1141 15.4985C75.707 16.2402 73.9873 16.6111 71.9158 16.6111H68.0855V25.7072H61.9102V0.351318H71.9354C73.9678 0.351318 75.6679 0.70267 77.075 1.40537C78.482 2.10808 79.5178 3.06453 80.2213 4.29426C80.9248 5.52399 81.2766 6.9294 81.2766 8.53C81.2766 9.99396 80.9444 11.3408 80.2604 12.551H80.2213ZM74.0655 10.8723C74.6517 10.3258 74.9253 9.54501 74.9253 8.53C74.9253 7.51498 74.6322 6.7342 74.0655 6.18765C73.4987 5.64111 72.5998 5.34832 71.4273 5.34832H68.066V11.7117H71.4273C72.5998 11.7117 73.4987 11.4384 74.0655 10.8723Z" fill="#0A2348"/>
<path d="M84.3835 10.1501C85.1652 8.58858 86.24 7.37837 87.5884 6.53903C88.9368 5.69969 90.4416 5.27026 92.1027 5.27026C93.5293 5.27026 94.78 5.56306 95.8548 6.12912C96.9296 6.69519 97.7504 7.45645 98.3367 8.41291V5.56306H104.512V25.7267H98.3367V22.8769C97.7309 23.8138 96.8905 24.5751 95.8157 25.1607C94.7409 25.7462 93.4902 26.0195 92.0636 26.0195C90.422 26.0195 88.9368 25.5901 87.5884 24.7312C86.24 23.8724 85.1652 22.6622 84.3835 21.0811C83.6018 19.5 83.2109 17.6847 83.2109 15.6156C83.2109 13.5465 83.6018 11.7312 84.3835 10.1697V10.1501ZM97.0469 11.985C96.187 11.0871 95.1513 10.6577 93.9201 10.6577C92.689 10.6577 91.6532 11.1066 90.7933 11.985C89.9335 12.8634 89.5036 14.0736 89.5036 15.6156C89.5036 17.1577 89.9335 18.3874 90.7933 19.2853C91.6532 20.1832 92.689 20.6321 93.9201 20.6321C95.1513 20.6321 96.187 20.1832 97.0469 19.3048C97.9067 18.4264 98.3367 17.1967 98.3367 15.6546C98.3367 14.1126 97.9067 12.9024 97.0469 12.0045V11.985Z" fill="#0A2348"/>
<path d="M108.949 10.1501C109.731 8.58858 110.805 7.37837 112.154 6.53903C113.502 5.69969 115.007 5.27026 116.668 5.27026C118.095 5.27026 119.345 5.56306 120.42 6.12912C121.495 6.69519 122.316 7.45645 122.902 8.41291V5.56306H129.077V25.7267H122.902V22.8769C122.296 23.8138 121.456 24.5751 120.381 25.1607C119.306 25.7462 118.056 26.0195 116.629 26.0195C114.987 26.0195 113.502 25.5901 112.154 24.7312C110.805 23.8724 109.731 22.6622 108.949 21.0811C108.167 19.5 107.776 17.6847 107.776 15.6156C107.776 13.5465 108.167 11.7312 108.949 10.1697V10.1501ZM121.593 11.985C120.733 11.0871 119.697 10.6577 118.466 10.6577C117.235 10.6577 116.199 11.1066 115.339 11.985C114.479 12.8634 114.049 14.0736 114.049 15.6156C114.049 17.1577 114.479 18.3874 115.339 19.2853C116.199 20.1832 117.235 20.6321 118.466 20.6321C119.697 20.6321 120.733 20.1832 121.593 19.3048C122.453 18.4264 122.883 17.1967 122.883 15.6546C122.883 14.1126 122.453 12.9024 121.593 12.0045V11.985Z" fill="#0A2348"/>
<path d="M137.754 25.0631C136.288 24.4579 135.116 23.5796 134.236 22.3889C133.357 21.2177 132.888 19.7928 132.849 18.1336H139.434C139.532 19.0706 139.864 19.7928 140.411 20.2808C140.959 20.7688 141.682 21.0225 142.581 21.0225C143.48 21.0225 144.222 20.8078 144.75 20.3979C145.278 19.9685 145.551 19.3829 145.551 18.6411C145.551 18.0165 145.336 17.4895 144.926 17.0796C144.515 16.6697 143.988 16.3378 143.362 16.0646C142.757 15.7913 141.877 15.4985 140.744 15.1667C139.102 14.6591 137.773 14.1516 136.738 13.6441C135.702 13.1366 134.803 12.3949 134.06 11.3994C133.318 10.4039 132.946 9.1156 132.946 7.53452C132.946 5.17266 133.806 3.31831 135.506 1.99098C137.226 0.663652 139.454 -0.0195312 142.19 -0.0195312C144.926 -0.0195312 147.232 0.644132 148.951 1.99098C150.671 3.33783 151.57 5.19218 151.707 7.57356H145.023C144.984 6.75374 144.672 6.1096 144.125 5.64113C143.577 5.17266 142.854 4.93843 141.994 4.93843C141.252 4.93843 140.646 5.13362 140.197 5.54353C139.747 5.93392 139.513 6.51951 139.513 7.26125C139.513 8.08107 139.903 8.72521 140.666 9.17416C141.428 9.62311 142.639 10.1306 144.281 10.6576C145.922 11.2042 147.251 11.7507 148.268 12.2387C149.284 12.7462 150.183 13.488 150.925 14.4444C151.668 15.4009 152.039 16.6501 152.039 18.1727C152.039 19.6952 151.668 20.9249 150.945 22.1156C150.202 23.2868 149.147 24.2432 147.74 24.9264C146.352 25.6291 144.691 25.9805 142.796 25.9805C140.9 25.9805 139.278 25.6877 137.812 25.0826L137.754 25.0631Z" fill="#0A2348"/>
<path d="M52.5099 15.557L55.0504 14.6006C56.3402 14.1126 56.3402 12.2973 55.0504 11.8093L52.5099 10.8528C51.5524 10.482 50.7902 9.74023 50.4189 8.76425L49.4613 6.22671C48.9728 4.93843 47.1553 4.93843 46.6668 6.22671L45.7092 8.76425C45.3379 9.72071 44.5953 10.482 43.6182 10.8528L41.0777 11.8093C39.7879 12.2973 39.7879 14.1126 41.0777 14.6006L43.6182 15.557C44.5758 15.9279 45.3379 16.6697 45.7092 17.6456L46.6668 20.1832C47.1553 21.4715 48.9728 21.4715 49.4613 20.1832L50.4189 17.6456C50.7902 16.6892 51.5328 15.9279 52.5099 15.557Z" fill="#268EFF"/>
</g>
<defs>
<clipPath id="clip0_3328_41748">
<rect width="152" height="26" fill="white"/>
</clipPath>
</defs>
</svg>
