<svg width="103" height="20" viewBox="0 0 103 20" fill="none" xmlns="http://www.w3.org/2000/svg">
<path d="M96.2611 19.9752C94.992 19.9752 93.8548 19.7692 92.8495 19.3572C91.8441 18.9452 91.0365 18.3353 90.4267 17.5278C89.8334 16.7202 89.5203 15.7478 89.4873 14.6106H93.9867C94.0526 15.2533 94.2751 15.7478 94.6542 16.0939C95.0332 16.4235 95.5277 16.5883 96.1375 16.5883C96.7638 16.5883 97.2582 16.4482 97.6208 16.1681C97.9834 15.8714 98.1647 15.4676 98.1647 14.9567C98.1647 14.5282 98.0164 14.1738 97.7197 13.8936C97.4395 13.6135 97.0852 13.3827 96.6567 13.2014C96.2446 13.0201 95.6513 12.8141 94.8767 12.5834C93.7559 12.2373 92.8412 11.8912 92.1325 11.5451C91.4238 11.199 90.814 10.688 90.3031 10.0123C89.7922 9.33658 89.5367 8.45483 89.5367 7.36707C89.5367 5.75191 90.1218 4.49109 91.292 3.58462C92.4622 2.66167 93.9867 2.2002 95.8655 2.2002C97.7774 2.2002 99.3184 2.66167 100.489 3.58462C101.659 4.49109 102.285 5.76015 102.367 7.39179H97.7939C97.7609 6.83143 97.5549 6.39467 97.1758 6.08153C96.7967 5.75191 96.3105 5.58709 95.7172 5.58709C95.2063 5.58709 94.7943 5.72718 94.4811 6.00736C94.168 6.27106 94.0114 6.65837 94.0114 7.16929C94.0114 7.72966 94.2751 8.16641 94.8025 8.47955C95.3299 8.7927 96.154 9.13056 97.2747 9.49315C98.3954 9.87222 99.3019 10.2348 99.9941 10.5809C100.703 10.927 101.313 11.4297 101.824 12.0889C102.334 12.7482 102.59 13.597 102.59 14.6353C102.59 15.6242 102.334 16.5224 101.824 17.33C101.329 18.1376 100.604 18.7803 99.648 19.2583C98.6921 19.7362 97.5631 19.9752 96.2611 19.9752Z" fill="#0A2348"/>
<path d="M72.3623 12.8802C72.3623 11.4628 72.626 10.2184 73.1534 9.14715C73.6973 8.07587 74.4307 7.2518 75.3537 6.67496C76.2766 6.09812 77.3067 5.80969 78.4439 5.80969C79.4163 5.80969 80.2651 6.00747 80.9902 6.40302C81.7319 6.79857 82.3005 7.31773 82.6961 7.9605V6.00747H86.9235V19.8023H82.6961V17.8492C82.284 18.492 81.7072 19.0112 80.9655 19.4067C80.2403 19.8023 79.3916 20.0001 78.4192 20.0001C77.2984 20.0001 76.2766 19.7116 75.3537 19.1348C74.4307 18.5415 73.6973 17.7092 73.1534 16.6379C72.626 15.5501 72.3623 14.2975 72.3623 12.8802ZM82.6961 12.9049C82.6961 11.8501 82.3994 11.0178 81.8061 10.408C81.2292 9.79816 80.5205 9.49325 79.68 9.49325C78.8394 9.49325 78.1225 9.79816 77.5292 10.408C76.9523 11.0013 76.6639 11.8254 76.6639 12.8802C76.6639 13.935 76.9523 14.7755 77.5292 15.4018C78.1225 16.0116 78.8394 16.3165 79.68 16.3165C80.5205 16.3165 81.2292 16.0116 81.8061 15.4018C82.3994 14.792 82.6961 13.9597 82.6961 12.9049Z" fill="#0A2348"/>
<path d="M55.583 12.8802C55.583 11.4628 55.8467 10.2184 56.3741 9.14715C56.918 8.07587 57.6514 7.2518 58.5744 6.67496C59.4973 6.09812 60.5274 5.80969 61.6646 5.80969C62.637 5.80969 63.4858 6.00747 64.2109 6.40302C64.9526 6.79857 65.5212 7.31773 65.9168 7.9605V6.00747H70.1442V19.8023H65.9168V17.8492C65.5047 18.492 64.9279 19.0112 64.1862 19.4067C63.461 19.8023 62.6123 20.0001 61.6399 20.0001C60.5191 20.0001 59.4973 19.7116 58.5744 19.1348C57.6514 18.5415 56.918 17.7092 56.3741 16.6379C55.8467 15.5501 55.583 14.2975 55.583 12.8802ZM65.9168 12.9049C65.9168 11.8501 65.6201 11.0178 65.0268 10.408C64.4499 9.79816 63.7412 9.49325 62.9007 9.49325C62.0601 9.49325 61.3432 9.79816 60.7499 10.408C60.173 11.0013 59.8846 11.8254 59.8846 12.8802C59.8846 13.935 60.173 14.7755 60.7499 15.4018C61.3432 16.0116 62.0601 16.3165 62.9007 16.3165C63.7412 16.3165 64.4499 16.0116 65.0268 15.4018C65.6201 14.792 65.9168 13.9597 65.9168 12.9049Z" fill="#0A2348"/>
<path d="M54.2223 8.03453C54.2223 9.03989 53.9916 9.96284 53.5301 10.8034C53.0686 11.6274 52.3599 12.2949 51.404 12.8059C50.4481 13.3168 49.2614 13.5722 47.8441 13.5722H45.2235V19.8021H40.9961V2.44739H47.8441C49.2285 2.44739 50.3987 2.68637 51.3546 3.16432C52.3105 3.64228 53.0274 4.30153 53.5054 5.14207C53.9833 5.98262 54.2223 6.94677 54.2223 8.03453ZM47.5227 10.2101C48.3303 10.2101 48.9318 10.0205 49.3274 9.64145C49.7229 9.26239 49.9207 8.72675 49.9207 8.03453C49.9207 7.34232 49.7229 6.80668 49.3274 6.42761C48.9318 6.04854 48.3303 5.85901 47.5227 5.85901H45.2235V10.2101H47.5227Z" fill="#0A2348"/>
<path d="M37.2868 9.36963V12.8801H26.4092V9.36963H37.2868Z" fill="#0A2348"/>
<path d="M21.4914 4.57355C20.7497 4.57355 20.1399 4.35929 19.6619 3.93078C19.2005 3.48579 18.9697 2.9419 18.9697 2.29914C18.9697 1.63989 19.2005 1.096 19.6619 0.667491C20.1399 0.222497 20.7497 0 21.4914 0C22.2165 0 22.8099 0.222497 23.2713 0.667491C23.7493 1.096 23.9883 1.63989 23.9883 2.29914C23.9883 2.9419 23.7493 3.48579 23.2713 3.93078C22.8099 4.35929 22.2165 4.57355 21.4914 4.57355ZM23.5927 6.00742V19.8022H19.3653V6.00742H23.5927Z" fill="#0A2348"/>
<path d="M11.9407 16.7366H5.46354L4.42522 19.8021H0L6.27936 2.44739H11.1743L17.4536 19.8021H12.979L11.9407 16.7366ZM10.8529 13.4733L8.7021 7.11982L6.57602 13.4733H10.8529Z" fill="#0A2348"/>
</svg>
