<svg width="24" height="24" viewBox="0 0 24 24" fill="none" xmlns="http://www.w3.org/2000/svg">
<path d="M16.95 10.11L20.25 8.22L12 3.5L3.75 8.22L7.05 10.11L3.75 12L7.05 13.89L3.75 15.78L12 20.5L20.25 15.78L16.95 13.89L20.25 12L16.95 10.11ZM6.77 8.22L12 5.23L17.23 8.22L15.44 9.24L13.93 10.1L12.14 11.12L12 11.2L11.86 11.12L10.07 10.1L8.56 9.24L6.77 8.22ZM17.23 15.78L12 18.77L6.77 15.78L8.56 14.76L12 16.73L15.44 14.76L17.23 15.78ZM15.44 13.02L13.93 13.88L12 14.98L10.07 13.87L8.56 13.01L6.77 11.99L8.56 10.97L10.35 11.99L11.86 12.85L12 12.93L12.14 12.85L13.65 11.99L15.44 10.97L17.23 11.99L15.44 13.01V13.02Z" fill="#1A1A1A"/>
</svg>
