<svg width="24" height="24" viewBox="0 0 24 24" fill="none" xmlns="http://www.w3.org/2000/svg">
<path d="M15.5 20.375H8.5V18.875H15.5V20.375ZM12 3.625C15.5899 3.625 18.5 6.53515 18.5 10.125C18.5 12.4255 17.3033 14.4444 15.5 15.5996V18.125H8.5V15.5996C6.69675 14.4444 5.5 12.4255 5.5 10.125C5.5 6.53515 8.41015 3.625 12 3.625ZM12 5.125C9.23858 5.125 7 7.36358 7 10.125C7 11.8917 7.91738 13.445 9.30957 14.3369L10 14.7793V16.625H14V14.7793L14.6904 14.3369C16.0826 13.445 17 11.8917 17 10.125C17 7.36358 14.7614 5.125 12 5.125Z" fill="#1A1A1A"/>
</svg>
