<svg width="24" height="24" viewBox="0 0 24 24" fill="none" xmlns="http://www.w3.org/2000/svg">
<path d="M12 4C8.41 4 5.5 5.34 5.5 7V17C5.5 18.66 8.41 20 12 20C15.59 20 18.5 18.66 18.5 17V7C18.5 5.34 15.59 4 12 4ZM12 5.5C15.04 5.5 16.88 6.56 17 6.98C17 6.98 17 6.99 16.99 7C16.84 7.46 15 8.5 12 8.5C9 8.5 7.12 7.44 7 7.02C7 7.02 7 7.01 7.01 7C7.16 6.54 9 5.5 12 5.5ZM12 18.5C8.96 18.5 7.12 17.44 7 17V13.92C8.19 14.58 9.99 15 12 15C14.01 15 15.81 14.58 17 13.92V16.99C16.88 17.44 15.03 18.51 12 18.51V18.5ZM16.99 12C16.84 12.46 15 13.5 12 13.5C9 13.5 7.13 12.44 7 12.02C7 12.02 7 12.01 7 12V8.92C8.19 9.58 9.99 10 12 10C14.01 10 15.81 9.58 17 8.92V12H16.99Z" fill="#1A1A1A"/>
</svg>
