<svg width="28" height="28" viewBox="0 0 28 28" xmlns="http://www.w3.org/2000/svg">
<path d="M8.96631 11.864C9.07413 11.61 9.36751 11.4909 9.62158 11.5984C9.87551 11.7063 9.99388 11.9996 9.88623 12.2537C9.55957 13.0232 9.45539 13.8702 9.58545 14.696C9.71558 15.5216 10.0752 16.2947 10.6226 16.9265C11.1698 17.5581 11.8837 18.0238 12.6821 18.2703C13.1882 18.4264 13.7166 18.4889 14.2407 18.4607L12.7681 16.989L12.7046 16.9099C12.5766 16.716 12.5975 16.4528 12.7681 16.282C12.9389 16.1111 13.2029 16.0894 13.397 16.2175L13.4751 16.282L15.6714 18.4773C15.8665 18.6726 15.8666 18.9901 15.6714 19.1853L13.4751 21.3806C13.2799 21.5755 12.9632 21.5756 12.7681 21.3806C12.573 21.1854 12.5731 20.8688 12.7681 20.6736L13.9751 19.4666C13.4395 19.4641 12.904 19.3848 12.3872 19.2253C11.4097 18.9236 10.5364 18.353 9.8667 17.5798C9.19704 16.8066 8.7573 15.8609 8.59814 14.8503C8.43914 13.84 8.56676 12.8055 8.96631 11.864ZM14.5249 6.61987C14.7201 6.42468 15.0367 6.42473 15.2319 6.61987C15.4272 6.81512 15.4272 7.13164 15.2319 7.3269L14.0259 8.53296C14.5609 8.53536 15.0954 8.61486 15.6118 8.77417C16.5893 9.07583 17.4634 9.64544 18.1333 10.4187C18.8029 11.1918 19.2427 12.1387 19.4019 13.1492C19.561 14.1597 19.4333 15.1948 19.0337 16.1365C18.9259 16.3905 18.6325 16.5097 18.3784 16.4021C18.1242 16.2942 18.0049 16 18.1128 15.7458C18.4394 14.9763 18.5436 14.1302 18.4136 13.3044C18.2834 12.4789 17.9237 11.7058 17.3765 11.074C16.8292 10.4422 16.1165 9.97679 15.3179 9.73022C14.8117 9.57403 14.2835 9.5114 13.7593 9.53979L15.2319 11.0115C15.4272 11.2067 15.4271 11.5232 15.2319 11.7185C15.0367 11.9137 14.7201 11.9137 14.5249 11.7185L12.3286 9.52319C12.1336 9.32807 12.1338 9.01142 12.3286 8.81616L14.5249 6.61987Z"/>
</svg>
