<svg width="28" height="28" viewBox="0 0 28 28" xmlns="http://www.w3.org/2000/svg">
<path d="M20 19.5C20.2761 19.5 20.5 19.7239 20.5 20C20.5 20.2761 20.2761 20.5 20 20.5H8C7.72386 20.5 7.5 20.2761 7.5 20C7.5 19.7239 7.72386 19.5 8 19.5H20ZM14 6.5C14.2761 6.5 14.5 6.72386 14.5 7V15.793L17.6465 12.6465C17.8417 12.4512 18.1583 12.4512 18.3535 12.6465C18.5488 12.8417 18.5488 13.1583 18.3535 13.3535L14.3535 17.3535C14.3194 17.3876 14.2804 17.4134 14.2402 17.4355C14.196 17.46 14.1488 17.4801 14.0977 17.4902C14.0329 17.5031 13.9661 17.5032 13.9014 17.4902C13.8502 17.48 13.803 17.4601 13.7588 17.4355C13.7189 17.4134 13.6803 17.3874 13.6465 17.3535L9.64648 13.3535C9.45122 13.1583 9.45122 12.8417 9.64648 12.6465C9.84175 12.4512 10.1583 12.4512 10.3535 12.6465L13.5 15.793V7C13.5 6.72386 13.7239 6.5 14 6.5Z" />
</svg>
