<svg width="16" height="16" viewBox="0 0 16 16" fill="none" xmlns="http://www.w3.org/2000/svg">
<g clip-path="url(#clip0_3531_46306)">
<path d="M7.95029 13.9088C9.5025 13.9088 10.9911 13.2432 12.0887 12.0583C13.1863 10.8734 13.8029 9.26633 13.8029 7.59064C13.8029 5.91496 13.1863 4.3079 12.0887 3.12301C10.9911 1.93812 9.5025 1.27246 7.95029 1.27246C6.39807 1.27246 4.90943 1.93812 3.81185 3.12301C2.71427 4.3079 2.09766 5.91496 2.09766 7.59064C2.09766 9.26633 2.71427 10.8734 3.81185 12.0583C4.90943 13.2432 6.39807 13.9088 7.95029 13.9088Z" fill="#FFD21E"/>
<path d="M13.8047 7.59135C13.8047 5.91567 13.1881 4.30861 12.0905 3.12372C10.993 1.93883 9.50431 1.27317 7.9521 1.27317C6.39988 1.27317 4.91124 1.93883 3.81366 3.12372C2.71608 4.30861 2.09947 5.91567 2.09947 7.59135C2.09947 9.26704 2.71608 10.8741 3.81366 12.059C4.91124 13.2439 6.39988 13.9095 7.9521 13.9095C9.50431 13.9095 10.993 13.2439 12.0905 12.059C13.1881 10.8741 13.8047 9.26704 13.8047 7.59135ZM1.42578 7.59135C1.42578 6.66613 1.59459 5.74997 1.92257 4.89517C2.25055 4.04038 2.73127 3.2637 3.33729 2.60946C3.94332 1.95523 4.66277 1.43627 5.45458 1.0822C6.24639 0.728134 7.09505 0.545898 7.9521 0.545898C8.80914 0.545898 9.6578 0.728134 10.4496 1.0822C11.2414 1.43627 11.9609 1.95523 12.5669 2.60946C13.1729 3.2637 13.6536 4.04038 13.9816 4.89517C14.3096 5.74997 14.4784 6.66613 14.4784 7.59135C14.4784 9.45992 13.7908 11.252 12.5669 12.5732C11.343 13.8945 9.68298 14.6368 7.9521 14.6368C6.22121 14.6368 4.56122 13.8945 3.33729 12.5732C2.11337 11.252 1.42578 9.45992 1.42578 7.59135Z" fill="#FF9D0B"/>
<path d="M9.85246 5.87306C10.068 5.95306 10.1523 6.42942 10.3695 6.30578C10.5166 6.22146 10.6373 6.09194 10.7162 5.93359C10.7951 5.77524 10.8288 5.59518 10.8129 5.41619C10.797 5.23719 10.7323 5.0673 10.627 4.928C10.5217 4.78869 10.3805 4.68624 10.2212 4.63359C10.0619 4.58094 9.89178 4.58046 9.73226 4.63222C9.57274 4.68397 9.43102 4.78563 9.32503 4.92434C9.21904 5.06305 9.15353 5.23258 9.13679 5.41148C9.12005 5.59039 9.15283 5.77063 9.23099 5.92942C9.33373 6.13851 9.66046 5.79851 9.85415 5.87124L9.85246 5.87306ZM5.88615 5.87306C5.67057 5.95306 5.58467 6.42942 5.36909 6.30578C5.22198 6.22146 5.10133 6.09194 5.02241 5.93359C4.94348 5.77524 4.90983 5.59518 4.92571 5.41619C4.94159 5.23719 5.00628 5.0673 5.1116 4.928C5.21693 4.78869 5.35815 4.68624 5.51742 4.63359C5.67668 4.58094 5.84683 4.58046 6.00635 4.63222C6.16587 4.68397 6.30759 4.78563 6.41358 4.92434C6.51957 5.06305 6.58508 5.23258 6.60182 5.41148C6.61856 5.59039 6.58578 5.77063 6.50762 5.92942C6.40488 6.13851 6.07646 5.79851 5.88446 5.87124L5.88615 5.87306Z" fill="#3A3B45"/>
<path d="M7.91045 10.2344C9.56602 10.2344 10.0999 8.64168 10.0999 7.8235C10.0999 7.39805 9.8355 7.53259 9.41108 7.75805C9.01866 7.96714 8.4915 8.25623 7.91213 8.25623C6.70118 8.25623 5.72266 7.00532 5.72266 7.8235C5.72266 8.64168 6.25487 10.2344 7.91213 10.2344H7.91045Z" fill="#FF323D"/>
<path fill-rule="evenodd" clip-rule="evenodd" d="M6.64001 9.81797C6.72888 9.62301 6.85401 9.4499 7.00758 9.30945C7.16116 9.16899 7.3399 9.0642 7.53264 9.00161C7.60001 8.97979 7.66907 9.10524 7.74149 9.23434C7.80886 9.35797 7.87959 9.48343 7.95033 9.48343C8.02612 9.48343 8.10191 9.35979 8.17433 9.23797C8.25012 9.1107 8.32422 8.98706 8.39664 9.0107C8.75845 9.1347 9.06079 9.40691 9.23875 9.76888C9.86696 9.23434 10.0977 8.36161 10.0977 7.82343C10.0977 7.39797 9.83328 7.53252 9.40885 7.75797L9.38528 7.7707C8.99622 7.97979 8.47749 8.25615 7.90822 8.25615C7.33896 8.25615 6.82191 7.97979 6.43117 7.7707C5.99328 7.53615 5.71875 7.38888 5.71875 7.82343C5.71875 8.37797 5.96464 9.28888 6.64001 9.81797Z" fill="#3A3B45"/>
<path d="M11.9085 6.72772C12.0536 6.72772 12.1929 6.66546 12.2955 6.55464C12.3982 6.44383 12.4558 6.29353 12.4558 6.13681C12.4558 5.98009 12.3982 5.82979 12.2955 5.71897C12.1929 5.60815 12.0536 5.5459 11.9085 5.5459C11.7633 5.5459 11.6241 5.60815 11.5214 5.71897C11.4188 5.82979 11.3611 5.98009 11.3611 6.13681C11.3611 6.29353 11.4188 6.44383 11.5214 6.55464C11.6241 6.66546 11.7633 6.72772 11.9085 6.72772ZM4.07689 6.72772C4.22206 6.72772 4.36129 6.66546 4.46394 6.55464C4.56659 6.44383 4.62426 6.29353 4.62426 6.13681C4.62426 5.98009 4.56659 5.82979 4.46394 5.71897C4.36129 5.60815 4.22206 5.5459 4.07689 5.5459C3.93172 5.5459 3.7925 5.60815 3.68984 5.71897C3.58719 5.82979 3.52952 5.98009 3.52952 6.13681C3.52952 6.29353 3.58719 6.44383 3.68984 6.55464C3.7925 6.66546 3.93172 6.72772 4.07689 6.72772ZM2.95015 8.72772C2.67731 8.72772 2.43479 8.84772 2.26468 9.06772C2.11963 9.26114 2.04055 9.50249 2.04068 9.75135C1.93463 9.71693 1.82467 9.69857 1.71394 9.69681C1.45289 9.69681 1.2171 9.80408 1.05037 9.99863C0.90161 10.1654 0.807821 10.3804 0.783471 10.6104C0.75912 10.8404 0.805561 11.0727 0.915628 11.2714C0.766573 11.4027 0.660829 11.5826 0.614155 11.7841C0.573734 11.9477 0.533313 12.2932 0.748891 12.6459C0.668077 12.78 0.619987 12.934 0.609092 13.0936C0.598197 13.2532 0.624851 13.4132 0.686576 13.5586C0.858365 13.9804 1.28784 14.3114 2.12152 14.6677C2.63858 14.8895 3.11352 15.0314 3.11689 15.0332C3.71687 15.2126 4.33528 15.3103 4.95773 15.3241C5.94468 15.3241 6.65037 14.9968 7.05626 14.3532C7.70973 13.3186 7.6171 12.3714 6.76994 11.4586C6.30342 10.9532 5.99184 10.2095 5.92784 10.0459C5.79647 9.56226 5.44952 9.02408 4.87521 9.02408C4.72242 9.02669 4.57241 9.06863 4.43766 9.14643C4.30291 9.22422 4.18731 9.33562 4.10047 9.47135C3.93205 9.24226 3.767 9.06226 3.61879 8.95863C3.42101 8.81408 3.18892 8.73393 2.95015 8.72772ZM2.95015 9.45499C3.03605 9.45499 3.14215 9.49499 3.25668 9.57317C3.6171 9.82044 4.30931 11.1059 4.56363 11.6059C4.64784 11.7732 4.79437 11.8441 4.92405 11.8441C5.1851 11.8441 5.38721 11.5659 4.94931 11.2114C4.2891 10.6786 4.51984 9.80772 4.83479 9.75499C4.84826 9.75135 4.86342 9.75135 4.87521 9.75135C5.16152 9.75135 5.28784 10.2841 5.28784 10.2841C5.28784 10.2841 5.65837 11.2877 6.295 11.975C6.92994 12.6604 6.96363 13.2114 6.50047 13.9441C6.18384 14.4441 5.57921 14.595 4.95773 14.595C4.31605 14.595 3.65584 14.4314 3.287 14.3295C3.26847 14.3241 1.02173 13.6386 1.30637 13.0568C1.35352 12.9586 1.43268 12.9186 1.53205 12.9186C1.93289 12.9186 2.66047 13.5623 2.97542 13.5623C3.04447 13.5623 3.09331 13.5314 3.11521 13.4532C3.24826 12.935 1.08405 12.7168 1.26594 11.9677C1.29963 11.835 1.38552 11.7823 1.50847 11.7823C2.03731 11.7823 3.22637 12.7877 3.47563 12.7877C3.49415 12.7877 3.50931 12.7823 3.51605 12.7695C3.64068 12.5514 3.57163 12.3986 2.69079 11.8241C1.81331 11.2495 1.19521 10.9041 1.54552 10.4914C1.58594 10.4441 1.64321 10.4223 1.71394 10.4223C2.24784 10.4223 3.50931 11.6623 3.50931 11.6623C3.50931 11.6623 3.84952 12.0441 4.05668 12.0441C4.10384 12.0441 4.14426 12.0259 4.17121 11.975C4.31605 11.7095 2.81373 10.4804 2.72952 9.97317C2.67226 9.62772 2.76994 9.45499 2.95015 9.45499Z" fill="#FF9D0B"/>
<path d="M6.4993 13.9437C6.96245 13.2091 6.92877 12.6582 6.29382 11.9727C5.65719 11.2873 5.28666 10.2818 5.28666 10.2818C5.28666 10.2818 5.14856 9.70002 4.83361 9.75457C4.51866 9.80911 4.28793 10.6782 4.94814 11.2109C5.60666 11.7437 4.81677 12.1055 4.56245 11.6055C4.30982 11.1055 3.61593 9.82002 3.25551 9.57275C2.89677 9.32729 2.64414 9.46366 2.72835 9.97275C2.81256 10.48 4.31656 11.7091 4.17003 11.9727C4.02351 12.24 3.50814 11.6618 3.50814 11.6618C3.50814 11.6618 1.89635 10.0782 1.54435 10.4909C1.19403 10.9037 1.81214 11.2491 2.68961 11.8237C3.57045 12.3982 3.63951 12.5509 3.51488 12.7691C3.38856 12.9873 1.44667 11.2182 1.26477 11.9691C1.08288 12.7164 3.24709 12.9327 3.11403 13.4509C2.9793 13.9691 1.58814 12.4727 1.30519 13.0546C1.01888 13.6382 3.2673 14.3237 3.28582 14.3291C4.01003 14.5327 5.85424 14.9637 6.4993 13.9437Z" fill="#FFD21E"/>
<path d="M13.0347 8.72754C13.3075 8.72754 13.5517 8.84754 13.7201 9.06754C13.8652 9.26096 13.9443 9.50231 13.9441 9.75118C14.0507 9.71658 14.1613 9.69822 14.2726 9.69663C14.5336 9.69663 14.7694 9.8039 14.9361 9.99845C15.0849 10.1652 15.1787 10.3802 15.203 10.6102C15.2274 10.8402 15.1809 11.0725 15.0709 11.2712C15.2193 11.4028 15.3244 11.5826 15.3707 11.7839C15.4111 11.9475 15.4515 12.293 15.2359 12.6457C15.3167 12.7799 15.3648 12.9339 15.3757 13.0934C15.3866 13.253 15.36 13.413 15.2982 13.5584C15.1264 13.9803 14.697 14.3112 13.865 14.6675C13.3462 14.8894 12.8713 15.0312 12.8679 15.033C12.2679 15.2124 11.6495 15.3102 11.0271 15.3239C10.0401 15.3239 9.33445 14.9966 8.92855 14.353C8.27508 13.3184 8.36771 12.3712 9.21487 11.4584C9.68308 10.953 9.99466 10.2094 10.0587 10.0457C10.19 9.56208 10.5353 9.0239 11.1096 9.0239C11.2624 9.02651 11.4124 9.06845 11.5471 9.14625C11.6819 9.22404 11.7975 9.33544 11.8843 9.47118C12.0528 9.24208 12.2178 9.06208 12.3677 8.95845C12.565 8.81424 12.7965 8.7341 13.0347 8.72754ZM13.0347 9.45481C12.9488 9.45481 12.8443 9.49481 12.7281 9.57299C12.3694 9.82027 11.6755 11.1057 11.4212 11.6057C11.3869 11.6771 11.3352 11.7369 11.2717 11.7789C11.2081 11.8209 11.1352 11.8434 11.0608 11.8439C10.8014 11.8439 10.5976 11.5657 11.0372 11.2112C11.6957 10.6784 11.465 9.80754 11.15 9.75481C11.1367 9.75246 11.1231 9.75125 11.1096 9.75118C10.8233 9.75118 10.697 10.2839 10.697 10.2839C10.697 10.2839 10.3264 11.2875 9.6915 11.9748C9.05487 12.6603 9.02118 13.2112 9.48603 13.9439C9.80097 14.4439 10.4073 14.5948 11.0271 14.5948C11.6704 14.5948 12.329 14.4312 12.6995 14.3294C12.7163 14.3239 14.9648 13.6384 14.6801 13.0566C14.6313 12.9584 14.5538 12.9184 14.4544 12.9184C14.0536 12.9184 13.3243 13.5621 13.0111 13.5621C12.9403 13.5621 12.8915 13.5312 12.8713 13.453C12.7366 12.9348 14.9008 12.7166 14.7189 11.9675C14.6869 11.8348 14.601 11.7821 14.4763 11.7821C13.9475 11.7821 12.7584 12.7875 12.5092 12.7875C12.4923 12.7875 12.4772 12.7821 12.4704 12.7694C12.3458 12.5512 12.4132 12.3984 13.2923 11.8239C14.1732 11.2494 14.7913 10.9039 14.4376 10.4912C14.3989 10.4439 14.3416 10.4221 14.2726 10.4221C13.737 10.4221 12.4755 11.6621 12.4755 11.6621C12.4755 11.6621 12.1353 12.0439 11.9298 12.0439C11.9067 12.045 11.8837 12.0391 11.8634 12.0269C11.8432 12.0147 11.8265 11.9967 11.8153 11.9748C11.6688 11.7094 13.1711 10.4803 13.2553 9.97299C13.3126 9.62754 13.2149 9.45481 13.0347 9.45481Z" fill="#FF9D0B"/>
<path d="M9.48638 13.9437C9.02323 13.2091 9.05523 12.6582 9.69186 11.9727C10.3268 11.2873 10.6973 10.2818 10.6973 10.2818C10.6973 10.2818 10.8354 9.70002 11.1521 9.75457C11.4653 9.80911 11.6961 10.6782 11.0375 11.2109C10.3773 11.7437 11.1689 12.1055 11.4215 11.6055C11.6759 11.1055 12.3698 9.82002 12.7285 9.57275C13.0872 9.32729 13.3415 9.46366 13.2556 9.97275C13.1714 10.48 11.6691 11.7091 11.8156 11.9727C11.9605 12.24 12.4759 11.6618 12.4759 11.6618C12.4759 11.6618 14.0893 10.0782 14.4396 10.4909C14.79 10.9037 14.1735 11.2491 13.2944 11.8237C12.4135 12.3982 12.3462 12.5509 12.4691 12.7691C12.5954 12.9873 14.5373 11.2182 14.7192 11.9691C14.9011 12.7164 12.7386 12.9327 12.8716 13.4509C13.0064 13.9691 14.3959 12.4727 14.6805 13.0546C14.9651 13.6382 12.7184 14.3237 12.6999 14.3291C11.974 14.5327 10.1298 14.9637 9.48638 13.9437Z" fill="#FFD21E"/>
</g>
<defs>
<clipPath id="clip0_3531_46306">
<rect width="16" height="16" fill="white"/>
</clipPath>
</defs>
</svg>
