<svg width="16" height="16" viewBox="0 0 16 16" fill="none" xmlns="http://www.w3.org/2000/svg">
<path d="M13.5 9C14.0523 9 14.5 9.44772 14.5 10V13C14.5 13.5523 14.0523 14 13.5 14H2.5C1.94772 14 1.5 13.5523 1.5 13V10C1.5 9.44772 1.94772 9 2.5 9H13.5ZM4.5 10.5C3.94772 10.5 3.5 10.9477 3.5 11.5C3.5 12.0523 3.94772 12.5 4.5 12.5C5.05228 12.5 5.5 12.0523 5.5 11.5C5.5 10.9477 5.05228 10.5 4.5 10.5ZM13.5 2C14.0523 2 14.5 2.44772 14.5 3V6C14.5 6.55228 14.0523 7 13.5 7H2.5C1.94772 7 1.5 6.55228 1.5 6V3C1.5 2.44772 1.94772 2 2.5 2H13.5ZM4.5 3.5C3.94772 3.5 3.5 3.94772 3.5 4.5C3.5 5.05228 3.94772 5.5 4.5 5.5C5.05228 5.5 5.5 5.05228 5.5 4.5C5.5 3.94772 5.05228 3.5 4.5 3.5Z" fill="white" fill-opacity="0.5"/>
</svg>
