<svg width="36" height="36" viewBox="0 0 36 36" fill="none" xmlns="http://www.w3.org/2000/svg">
<rect width="36" height="36" rx="18" fill="#F2F2F2"/>
<mask id="path-2-inside-1_2826_16871" fill="white">
<path d="M20.5858 9C20.851 9 21.1054 9.10536 21.2929 9.29289L24.7071 12.7071C24.8946 12.8946 25 13.149 25 13.4142V26C25 26.5523 24.5523 27 24 27H12C11.4477 27 11 26.5523 11 26V10C11 9.44772 11.4477 9 12 9H20.5858Z"/>
</mask>
<path d="M20.5858 9C20.851 9 21.1054 9.10536 21.2929 9.29289L24.7071 12.7071C24.8946 12.8946 25 13.149 25 13.4142V26C25 26.5523 24.5523 27 24 27H12C11.4477 27 11 26.5523 11 26V10C11 9.44772 11.4477 9 12 9H20.5858Z" fill="white"/>
<path d="M24.7071 12.7071L25.4142 12L24.7071 12.7071ZM21.2929 9.29289L20.5858 10L21.2929 9.29289ZM21.2929 9.29289L20.5858 10L24 13.4142L24.7071 12.7071L25.4142 12L22 8.58579L21.2929 9.29289ZM25 13.4142H24V26H25H26V13.4142H25ZM24 27V26H12V27V28H24V27ZM11 26H12V10H11H10V26H11ZM12 9V10H20.5858V9V8H12V9ZM11 10H12V10V9V8C10.8954 8 10 8.89543 10 10H11ZM12 27V26H12H11H10C10 27.1046 10.8954 28 12 28V27ZM25 26H24V27V28C25.1046 28 26 27.1046 26 26H25ZM24.7071 12.7071L24 13.4142H25H26C26 12.8838 25.7893 12.3751 25.4142 12L24.7071 12.7071ZM21.2929 9.29289L22 8.58579C21.6249 8.21071 21.1162 8 20.5858 8V9V10L21.2929 9.29289Z" fill="#B8B8B8" mask="url(#path-2-inside-1_2826_16871)"/>
<path d="M21.6025 22.5098C21.8303 22.5564 22.002 22.7584 22.002 23C22.002 23.2416 21.8303 23.4436 21.6025 23.4902L21.502 23.5H14.5C14.224 23.4999 14 23.2761 14 23C14 22.7239 14.224 22.5001 14.5 22.5H21.502L21.6025 22.5098ZM21.6025 20.0098C21.8303 20.0564 22.002 20.2584 22.002 20.5C22.002 20.7416 21.8303 20.9436 21.6025 20.9902L21.502 21H14.5C14.224 20.9999 14 20.7761 14 20.5C14 20.2239 14.224 20.0001 14.5 20H21.502L21.6025 20.0098ZM21.6025 17.5098C21.8303 17.5564 22.002 17.7584 22.002 18C22.002 18.2416 21.8303 18.4436 21.6025 18.4902L21.502 18.5H14.5C14.224 18.4999 14 18.2761 14 18C14 17.7239 14.224 17.5001 14.5 17.5H21.502L21.6025 17.5098ZM18.1016 13.5098C18.3294 13.5564 18.501 13.7584 18.501 14C18.501 14.2416 18.3294 14.4436 18.1016 14.4902L18.001 14.5H14.5C14.224 14.4999 14 14.2761 14 14C14 13.7239 14.224 13.5001 14.5 13.5H18.001L18.1016 13.5098Z" fill="#B8B8B8"/>
<path d="M20.5 13.5V9.5L24.5 13.5H20.5Z" fill="#B8B8B8"/>
</svg>
