<svg width="16" height="16" viewBox="0 0 16 16" fill="none" xmlns="http://www.w3.org/2000/svg">
<path d="M8.49996 1C9.32827 1.00014 9.99996 1.67166 9.99996 2.5V3.41602C10.3445 3.56657 10.6689 3.75484 10.9677 3.97559L11.7627 3.51758C12.48 3.10345 13.3982 3.34911 13.8125 4.06641L14.3125 4.93262C14.7266 5.65003 14.48 6.56722 13.7627 6.98145L12.9668 7.44043C12.9872 7.6242 13 7.81076 13 8C13 8.18857 12.9871 8.37447 12.9668 8.55762L13.7627 9.01758C14.4799 9.4317 14.7262 10.3491 14.3125 11.0664L13.8125 11.9326C13.3983 12.65 12.4801 12.8956 11.7627 12.4814L10.9677 12.0225C10.6687 12.2434 10.3447 12.4323 9.99996 12.583V13.5C9.99996 14.3283 9.32827 14.9999 8.49996 15H7.49996C6.67153 15 5.99996 14.3284 5.99996 13.5V12.583C5.65468 12.4321 5.32959 12.2438 5.03023 12.0225L4.23629 12.4814C3.51888 12.8956 2.60166 12.65 2.18746 11.9326L1.68746 11.0664C1.27364 10.3491 1.51916 9.43177 2.23629 9.01758L3.03121 8.55762C3.01089 8.37452 2.99996 8.18852 2.99996 8C2.99996 7.81082 3.01075 7.62415 3.03121 7.44043L2.23629 6.98145C1.51926 6.56708 1.27335 5.64988 1.68746 4.93262L2.18746 4.06641C2.60166 3.34933 3.519 3.10377 4.23629 3.51758L5.03023 3.97559C5.32944 3.75445 5.65491 3.56676 5.99996 3.41602V2.5C5.99996 1.67157 6.67153 1 7.49996 1H8.49996ZM7.99996 6C6.89539 6 5.99996 6.89543 5.99996 8C5.99996 9.10457 6.89539 10 7.99996 10C9.10451 9.99998 9.99996 9.10456 9.99996 8C9.99996 6.89544 9.10451 6.00002 7.99996 6Z" fill="#7D7D7D"/>
</svg>
