<svg width="12" height="14" viewBox="0 0 12 14" xmlns="http://www.w3.org/2000/svg">
<path d="M5.99951 0.249029C6.34436 0.249029 6.62944 0.248278 6.86182 0.264654C7.09899 0.281388 7.31929 0.317671 7.53076 0.408209C8.02619 0.620419 8.4144 1.02595 8.61572 1.52833C8.70092 1.74113 8.73544 1.96297 8.75146 2.20508C8.75912 2.32094 8.76317 2.45006 8.76514 2.59278H11.2896C11.5653 2.59293 11.7892 2.81707 11.7896 3.09278C11.7896 3.36883 11.5656 3.59263 11.2896 3.59278H11.0337V10.7529C11.0337 11.1816 11.0337 11.533 11.0112 11.8174C10.9883 12.1071 10.9398 12.3716 10.8179 12.6191C10.6273 13.0058 10.3204 13.3235 9.94092 13.5234C9.69586 13.6525 9.43469 13.7045 9.15088 13.7285C8.87339 13.752 8.53146 13.751 8.11768 13.751H3.88135C3.46799 13.751 3.12655 13.7519 2.84912 13.7285C2.56525 13.7045 2.30322 13.6526 2.05811 13.5234C1.67818 13.3232 1.37242 13.0052 1.18213 12.6191C1.06012 12.3714 1.01072 12.1065 0.987793 11.8164C0.965324 11.5317 0.966309 11.1803 0.966309 10.751V3.59278H0.710449C0.434367 3.59271 0.210449 3.36888 0.210449 3.09278C0.210849 2.81702 0.434614 2.59285 0.710449 2.59278H3.23486C3.23682 2.45007 3.24089 2.32092 3.24854 2.20508C3.26454 1.96295 3.29903 1.74119 3.38428 1.52833C3.58556 1.02598 3.97371 0.620461 4.46924 0.408209C4.68051 0.317789 4.90029 0.281398 5.13721 0.264654C5.36957 0.248263 5.65472 0.249029 5.99951 0.249029ZM1.96631 10.751C1.96631 11.196 1.96625 11.5012 1.98486 11.7373C2.00309 11.9679 2.03707 12.0903 2.07959 12.1768C2.17897 12.3784 2.33559 12.5393 2.52393 12.6387C2.60169 12.6797 2.71375 12.7129 2.93311 12.7315C3.15876 12.7505 3.4509 12.751 3.88135 12.751H8.11768C8.54851 12.751 8.8413 12.7505 9.06689 12.7315C9.28586 12.7129 9.3973 12.6797 9.4751 12.6387C9.6641 12.539 9.82125 12.3779 9.92041 12.1768C9.96288 12.0905 9.99595 11.9686 10.0142 11.7383C10.0328 11.5024 10.0337 11.1974 10.0337 10.7529V3.59278H1.96631V10.751ZM4.48877 5.71876C4.76473 5.71885 4.98859 5.94282 4.98877 6.21876V10.126C4.98863 10.4019 4.76475 10.6259 4.48877 10.626C4.21278 10.6259 3.98891 10.402 3.98877 10.126V6.21876C3.98895 5.94281 4.2128 5.71883 4.48877 5.71876ZM7.51123 5.71876C7.78721 5.71881 8.01105 5.9428 8.01123 6.21876V10.126C8.01109 10.402 7.78723 10.6259 7.51123 10.626C7.23524 10.6259 7.01137 10.402 7.01123 10.126V6.21876C7.01141 5.94281 7.23526 5.71883 7.51123 5.71876ZM5.99951 1.24903C5.6409 1.24903 5.39748 1.2494 5.2085 1.2627C5.02457 1.27568 4.92893 1.29889 4.86279 1.32715C4.61797 1.43202 4.41758 1.63629 4.31201 1.89942C4.28233 1.97352 4.25935 2.07827 4.24658 2.27149C4.24048 2.36408 4.23762 2.4693 4.23584 2.59278H7.76416C7.76237 2.4693 7.75953 2.36407 7.75342 2.27149C7.74063 2.0783 7.71671 1.97355 7.68701 1.89942C7.58145 1.63653 7.38198 1.43202 7.13721 1.32715C7.07103 1.29885 6.97554 1.27569 6.7915 1.2627C6.60245 1.24938 6.35853 1.24903 5.99951 1.24903Z"/>
</svg>
