<svg width="16" height="16" viewBox="0 0 16 16" fill="none" xmlns="http://www.w3.org/2000/svg">
<path d="M8.50012 1C9.32845 1.00012 10.0001 1.67164 10.0001 2.5V3.41602C10.3447 3.56657 10.6691 3.75483 10.9679 3.97559L11.7628 3.51758C12.4802 3.10342 13.3984 3.3491 13.8126 4.06641L14.3126 4.93262C14.7268 5.65004 14.4802 6.56723 13.7628 6.98145L12.9669 7.44043C12.9874 7.6242 13.0001 7.81076 13.0001 8C13.0001 8.18857 12.9873 8.37447 12.9669 8.55762L13.7628 9.01758C14.4801 9.4317 14.7264 10.3491 14.3126 11.0664L13.8126 11.9326C13.3984 12.65 12.4803 12.8956 11.7628 12.4814L10.9679 12.0225C10.6689 12.2434 10.3449 12.4323 10.0001 12.583V13.5C10.0001 14.3284 9.32845 14.9999 8.50012 15H7.50012C6.6717 15 6.00012 14.3284 6.00012 13.5V12.583C5.65484 12.4321 5.32976 12.2438 5.0304 12.0225L4.23645 12.4814C3.51904 12.8956 2.60182 12.65 2.18762 11.9326L1.68762 11.0664C1.2738 10.3491 1.51933 9.43177 2.23645 9.01758L3.03137 8.55762C3.01105 8.37452 3.00012 8.18852 3.00012 8C3.00012 7.81082 3.01091 7.62415 3.03137 7.44043L2.23645 6.98145C1.51942 6.56708 1.27351 5.64988 1.68762 4.93262L2.18762 4.06641C2.60182 3.34931 3.51916 3.10376 4.23645 3.51758L5.0304 3.97559C5.32961 3.75444 5.65506 3.56677 6.00012 3.41602V2.5C6.00012 1.67157 6.67169 1 7.50012 1H8.50012ZM8.00012 6C6.89555 6 6.00012 6.89543 6.00012 8C6.00012 9.10457 6.89555 10 8.00012 10C9.10467 9.99998 10.0001 9.10456 10.0001 8C10.0001 6.89544 9.10467 6.00002 8.00012 6Z" fill="#525252"/>
</svg>
