<svg width="12" height="12" viewBox="0 0 12 12" fill="none" xmlns="http://www.w3.org/2000/svg">
<path d="M3.14209 0.498047C3.41821 0.498066 3.64209 0.721919 3.64209 0.998047C3.64209 1.27418 3.41822 1.49803 3.14209 1.49805H1.99756C1.72142 1.49805 1.49756 1.72191 1.49756 1.99805V10.002C1.49756 10.2781 1.72142 10.502 1.99756 10.502H10.0015C10.2776 10.5019 10.5015 10.2781 10.5015 10.002V8.85742C10.5015 8.58133 10.7254 8.3575 11.0015 8.35742C11.2776 8.35744 11.5015 8.58129 11.5015 8.85742V10.002C11.5015 10.8304 10.8299 11.5019 10.0015 11.502H1.99756C1.16913 11.502 0.497559 10.8304 0.497559 10.002V1.99805C0.497563 1.16962 1.16913 0.498047 1.99756 0.498047H3.14209ZM11.0024 0.498047C11.2783 0.498303 11.5024 0.722123 11.5024 0.998047V5.76367C11.502 6.03929 11.2781 6.26342 11.0024 6.26367C10.7266 6.26366 10.5029 6.03944 10.5024 5.76367V2.20215L4.92236 7.78223C4.72718 7.9771 4.41052 7.97709 4.21533 7.78223C4.02042 7.58704 4.02045 7.2704 4.21533 7.0752L9.79248 1.49805H6.23682C5.96085 1.49803 5.73708 1.27396 5.73682 0.998047C5.73689 0.721975 5.96073 0.498063 6.23682 0.498047H11.0024Z" fill="#1A1A1A"/>
</svg>
