<svg width="28" height="28" viewBox="0 0 28 28" xmlns="http://www.w3.org/2000/svg">
<path d="M11.2441 8.51172C11.4717 8.55855 11.6425 8.76057 11.6426 9.00195C11.6426 9.24337 11.4717 9.44534 11.2441 9.49219L11.1426 9.50195H10C9.72389 9.50195 9.50006 9.72586 9.5 10.002V17.998L9.50977 18.0986C9.5564 18.3265 9.75839 18.498 10 18.498H17.9951C18.2709 18.4978 18.495 18.2739 18.4951 17.998V16.8545C18.4953 16.5785 18.7191 16.3545 18.9951 16.3545C19.2709 16.3548 19.495 16.5787 19.4951 16.8545V17.998C19.495 18.8262 18.8232 19.4978 17.9951 19.498H10C9.22344 19.498 8.58474 18.9076 8.50781 18.1514L8.5 17.998V10.002C8.50006 9.17358 9.17161 8.50195 10 8.50195H11.1426L11.2441 8.51172ZM18.9941 8.50195C19.2703 8.50195 19.4941 8.72581 19.4941 9.00195V13.7637C19.4939 14.0396 19.2701 14.2637 18.9941 14.2637C18.7184 14.2634 18.4944 14.0394 18.4941 13.7637V10.208L12.9219 15.7812C12.7267 15.9761 12.41 15.9761 12.2148 15.7812C12.0197 15.5861 12.0199 15.2695 12.2148 15.0742L17.7861 9.50195H14.2334C13.9575 9.50172 13.7335 9.27789 13.7334 9.00195C13.7334 8.72596 13.9575 8.50219 14.2334 8.50195H18.9941Z" />
</svg>
